<svg width="31" height="31" viewBox="0 0 31 31" fill="none" xmlns="http://www.w3.org/2000/svg">
<path d="M30.125 0.875H0.875V30.125H30.125V0.875ZM25.0989 21.4865L22.2795 21.5255C22.2795 21.5255 21.6717 21.6441 20.8755 21.0949C19.8209 20.3701 18.8264 18.4851 18.0513 18.7305C17.2647 18.9807 17.2891 20.6772 17.2891 20.6772C17.2891 20.6772 17.2956 20.9762 17.1153 21.1712C16.9202 21.3809 16.5384 21.3598 16.5384 21.3598H15.2758C15.2758 21.3598 12.4905 21.5905 10.0351 19.0311C7.36037 16.241 4.99763 10.7339 4.99763 10.7339C4.99763 10.7339 4.8595 10.3861 5.00738 10.209C5.17475 10.0124 5.6265 10.0075 5.6265 10.0075L8.64412 9.99288C8.64412 9.99288 8.9285 10.0433 9.13325 10.1927C9.30062 10.3163 9.3965 10.5486 9.3965 10.5486C9.3965 10.5486 9.884 11.7852 10.5308 12.9049C11.7918 15.0872 12.3784 15.565 12.8057 15.331C13.4298 14.9897 13.2429 12.2467 13.2429 12.2467C13.2429 12.2467 13.2543 11.2506 12.9293 10.807C12.6758 10.4609 12.1996 10.3585 11.99 10.3325C11.8194 10.3097 12.0972 9.91488 12.4596 9.73612C13.0024 9.47125 13.9628 9.455 15.0954 9.46637C15.9778 9.47612 16.2329 9.52975 16.5774 9.61425C17.619 9.86613 17.2648 10.8379 17.2648 13.1698C17.2648 13.9172 17.1299 14.967 17.6677 15.3131C17.9001 15.4626 18.4656 15.3359 19.8778 12.9309C20.5489 11.7901 21.051 10.4495 21.051 10.4495C21.051 10.4495 21.1615 10.2106 21.3321 10.1083C21.5076 10.0026 21.7432 10.0351 21.7432 10.0351L24.9201 10.0156C24.9201 10.0156 25.874 9.90025 26.03 10.3341C26.1925 10.7875 25.6741 11.8454 24.3757 13.576C22.2454 16.4198 22.0081 16.1549 23.7778 17.7994C25.4678 19.3708 25.8171 20.1345 25.8756 20.2304C26.5744 21.3939 25.0989 21.4865 25.0989 21.4865Z" fill="white"/>
</svg>
